<svg width="130" height="154" viewBox="0 0 130 154" fill="none" xmlns="http://www.w3.org/2000/svg">
<g clip-path="url(#clip0_597_7297)">
<path d="M42.196 147.804C22.5561 140.025 5.67755 123.881 7.95778 101.407C9.07912 90.3553 16.3801 80.861 16.803 69.7067C17.2306 58.4275 7.96517 51.7042 3.34696 42.3662C-2.22964 31.091 0.381533 16.0224 9.91525 7.63887C20.2045 -1.40867 37.1598 -1.61693 47.6685 7.17564C56.7372 14.7635 60.2891 26.9758 67.2947 36.4985C73.3579 44.7398 82.1513 50.9409 91.9542 53.8875C97.615 55.5892 103.601 56.2419 109.046 58.5436C124.112 64.9136 131.615 83.2036 129.305 99.3861C126.995 115.569 116.759 129.626 104.78 140.76C100.178 145.037 95.1653 149.058 89.288 151.282C80.6956 154.533 71.1651 153.643 62.0252 152.707C55.5099 152.039 48.7019 150.381 42.196 147.804Z" fill="#D7E5F4"/>
</g>
<defs>
<clipPath id="clip0_597_7297">
<rect width="130" height="154" fill="white"/>
</clipPath>
</defs>
</svg>
