<svg width="180" height="52" viewBox="0 0 180 52" fill="none" xmlns="http://www.w3.org/2000/svg">
<path d="M63.3573 24.7631H42.84C42.9412 27.2565 43.615 29.0926 44.8616 30.2713C46.1156 31.4539 47.7879 32.0901 49.5108 32.04C50.9792 32.0951 52.4254 31.6693 53.6296 30.8273C54.7151 30.0333 55.4634 28.8613 55.7268 27.5425H63.2567C62.902 29.4609 62.087 31.2645 60.8815 32.7983C59.6398 34.3706 58.0361 35.6189 56.2072 36.4368C54.0452 37.371 51.7037 37.8169 49.3497 37.7426C46.9956 37.6683 44.6869 37.0757 42.5881 36.007C40.4876 34.8662 38.7668 33.1358 37.6375 31.0292C36.4099 28.6769 35.8002 26.0512 35.8656 23.3987C35.8013 20.7385 36.4096 18.1051 37.6342 15.7426C38.754 13.6289 40.4773 11.8962 42.5848 10.7648C44.8278 9.59046 47.3303 8.99963 49.8617 9.04677C52.3862 8.98946 54.8831 9.58101 57.1136 10.7648C59.1282 11.8544 60.7929 13.4927 61.9146 15.4896C63.0672 17.5853 63.652 19.9459 63.6108 22.3373C63.5999 23.1518 63.5154 23.9637 63.3584 24.7631M54.6399 16.4248C53.3349 15.2428 51.6245 14.6094 49.8644 14.6562C48.0809 14.606 46.3456 15.2386 45.0128 16.4248C43.6988 17.6043 42.9745 19.3393 42.84 21.6301H56.4341C56.5353 19.3393 55.9368 17.6043 54.6388 16.4248" fill="black"/>
<path d="M87.8151 10.7147C89.4677 11.7851 90.7278 13.3635 91.4057 15.2121V9.40086H98.478V37.4986C98.5164 39.9198 97.9886 42.3164 96.9368 44.4975C95.9283 46.5475 94.3259 48.2462 92.3382 49.3725C90.0708 50.6082 87.5156 51.2186 84.9345 51.1411C80.8917 51.1411 77.6237 50.1809 75.1307 48.2605C72.6424 46.3498 71.0081 43.5348 70.5826 40.4266H77.6071C77.9656 41.7771 78.8 42.9525 79.9567 43.7364C81.2929 44.5764 82.8528 44.9906 84.4297 44.924C85.3521 44.9654 86.2736 44.8237 87.1409 44.5071C88.0083 44.1904 88.8043 43.7051 89.4831 43.0792C90.763 41.849 91.4032 39.9875 91.4035 37.4948V31.5356C90.7222 33.389 89.4635 34.9745 87.813 36.0586C86.0086 37.2217 83.8946 37.8119 81.7487 37.7516C79.5084 37.7832 77.3038 37.1881 75.3836 36.0336C73.4549 34.8421 71.9176 33.1115 70.9618 31.0557C69.8526 28.6591 69.308 26.0399 69.37 23.3997C69.3084 20.7592 69.8535 18.1398 70.9634 15.7431C71.9196 13.6876 73.4568 11.9571 75.3853 10.7653C77.3056 9.61107 79.5101 9.01605 81.7504 9.04724C83.8927 8.98685 86.0043 9.56746 87.8146 10.7147M78.6179 17.4383C77.2698 18.8868 76.5959 20.8745 76.5963 23.4013C76.5966 25.9281 77.2705 27.9075 78.6179 29.3393C80.0545 30.7259 81.9758 31.4965 83.9724 31.4871C85.9689 31.4776 87.8829 30.6888 89.3063 29.2888C90.7037 27.8232 91.4028 25.8607 91.4035 23.4013C91.4035 20.9086 90.7045 18.9293 89.3063 17.4633C88.6227 16.7418 87.7944 16.173 86.8756 15.7942C85.9568 15.4153 84.9683 15.2349 83.9749 15.2649C82.9784 15.2229 81.9846 15.3951 81.0604 15.77C80.1363 16.145 79.3033 16.7139 78.6179 17.4383Z" fill="black"/>
<path d="M124.099 10.7141C125.752 11.7846 127.012 13.363 127.69 15.2116V9.40032H134.762V37.3969H127.69V31.535C127.008 33.3884 125.75 34.974 124.099 36.058C122.295 37.2212 120.181 37.8114 118.035 37.7511C115.795 37.7826 113.59 37.1876 111.67 36.033C109.741 34.8415 108.204 33.1109 107.248 31.0552C106.139 28.6586 105.594 26.0394 105.656 23.3991C105.594 20.7589 106.139 18.1397 107.248 15.7431C108.204 13.6876 109.741 11.9571 111.67 10.7653C113.59 9.61107 115.795 9.01605 118.035 9.04724C120.177 8.98685 122.289 9.56691 124.099 10.7141ZM114.902 17.4377C113.554 18.8863 112.88 20.874 112.88 23.4008C112.881 25.9276 113.554 27.9069 114.902 29.3388C116.338 30.7255 118.26 31.4962 120.256 31.4868C122.253 31.4773 124.167 30.6884 125.59 29.2882C126.988 27.8226 127.687 25.8601 127.688 23.4008C127.688 20.9081 126.988 18.9287 125.59 17.4628C124.907 16.7413 124.078 16.1725 123.16 15.7936C122.241 15.4148 121.252 15.2344 120.259 15.2644C119.262 15.2222 118.269 15.3944 117.344 15.7693C116.42 16.1441 115.587 16.7134 114.902 17.4377Z" fill="black"/>
<path d="M150.478 0H143.353V37.3962H150.478V0Z" fill="black"/>
<path d="M11.0829 32.1508C11.0829 33.2468 10.7579 34.3181 10.149 35.2294C9.54013 36.1407 8.67471 36.8509 7.66217 37.2704C6.64964 37.6898 5.53547 37.7996 4.46055 37.5858C3.38564 37.372 2.39825 36.8443 1.62324 36.0694C0.848238 35.2945 0.320425 34.3071 0.106546 33.2322C-0.107333 32.1573 0.00232831 31.0431 0.421663 30.0306C0.840997 29.018 1.55117 28.1525 2.46238 27.5435C3.3736 26.9346 4.44492 26.6095 5.54089 26.6094C7.01062 26.6094 8.42016 27.1932 9.45947 28.2324C10.4988 29.2716 11.0827 30.6811 11.0829 32.1508Z" fill="#8BBEE8"/>
<path d="M105.822 47.2519C105.815 46.813 105.928 46.3806 106.148 46.0006C106.358 45.6372 106.663 45.3378 107.031 45.1345C107.404 44.9264 107.825 44.819 108.253 44.8228C108.73 44.8147 109.199 44.9443 109.605 45.196C109.999 45.4445 110.301 45.8162 110.464 46.2536H109.525C109.416 46.0179 109.236 45.8218 109.011 45.6922C108.778 45.5651 108.515 45.5014 108.25 45.5072C107.955 45.502 107.664 45.5752 107.407 45.7194C107.161 45.8623 106.961 46.0735 106.831 46.3276C106.687 46.6141 106.615 46.9317 106.622 47.2524C106.615 47.5732 106.687 47.8908 106.831 48.1773C106.962 48.4313 107.163 48.6427 107.41 48.7866C107.666 48.9336 107.957 49.0088 108.252 49.0042C108.517 49.01 108.78 48.9463 109.013 48.8192C109.238 48.6896 109.418 48.4935 109.527 48.2578H110.465C110.303 48.6945 110.001 49.0653 109.606 49.3121C109.2 49.5615 108.73 49.6896 108.254 49.6815C107.825 49.6861 107.403 49.5787 107.029 49.3698C106.663 49.1657 106.359 48.8665 106.149 48.5037C105.929 48.1237 105.816 47.6911 105.822 47.2519ZM113.009 49.7C112.672 49.7046 112.339 49.6208 112.044 49.4568C111.758 49.2968 111.524 49.0596 111.366 48.7724C111.197 48.4583 111.112 48.1058 111.12 47.7491C111.113 47.3927 111.201 47.0409 111.373 46.7291C111.535 46.441 111.775 46.2045 112.065 46.0469C112.365 45.8851 112.703 45.8027 113.044 45.8075C113.385 45.8027 113.723 45.8851 114.023 46.0469C114.314 46.205 114.554 46.4424 114.715 46.7313C114.887 47.043 114.975 47.3949 114.968 47.7513C114.975 48.1085 114.885 48.461 114.708 48.7714C114.541 49.0621 114.296 49.3005 114.001 49.4595C113.696 49.6231 113.355 49.7066 113.009 49.7022V49.7ZM113.009 49.0221C113.207 49.023 113.401 48.9736 113.574 48.8785C113.754 48.7779 113.902 48.6284 114.001 48.4471C114.116 48.2328 114.172 47.9921 114.165 47.7491C114.172 47.5079 114.118 47.2688 114.007 47.0544C113.912 46.8748 113.767 46.7264 113.59 46.6268C113.418 46.5315 113.225 46.482 113.028 46.4832C112.833 46.4817 112.64 46.5312 112.47 46.6268C112.295 46.7263 112.154 46.875 112.063 47.0544C111.956 47.2702 111.904 47.5087 111.912 47.7491C111.89 48.0914 112.002 48.4288 112.224 48.6903C112.323 48.799 112.445 48.8852 112.58 48.9429C112.716 49.0006 112.862 49.0286 113.009 49.0249V49.0221ZM120.307 45.8075C120.584 45.8029 120.858 45.8664 121.104 45.9925C121.339 46.1159 121.532 46.3066 121.659 46.5403C121.8 46.8103 121.869 47.1121 121.86 47.4167V49.6418H121.087V47.5332C121.106 47.2512 121.015 46.9728 120.833 46.7563C120.744 46.6644 120.636 46.5926 120.517 46.5457C120.398 46.4988 120.27 46.4779 120.142 46.4843C120.013 46.4781 119.885 46.4991 119.765 46.546C119.646 46.5929 119.537 46.6646 119.447 46.7563C119.264 46.972 119.172 47.2507 119.19 47.5332V49.6418H118.417V47.5332C118.436 47.2512 118.345 46.9728 118.164 46.7563C118.075 46.6644 117.967 46.5926 117.847 46.5457C117.728 46.4988 117.6 46.4779 117.472 46.4843C117.344 46.4781 117.216 46.4991 117.096 46.546C116.976 46.5929 116.868 46.6646 116.778 46.7563C116.594 46.972 116.502 47.2507 116.521 47.5332V49.6418H115.741V45.8701H116.521V46.3015C116.652 46.1439 116.818 46.0195 117.007 45.9386C117.205 45.8514 117.42 45.8071 117.637 45.8086C117.918 45.8037 118.196 45.8695 118.445 46.0001C118.679 46.1255 118.87 46.3194 118.992 46.5561C119.11 46.3242 119.296 46.1342 119.526 46.0121C119.764 45.8773 120.033 45.8069 120.307 45.8075ZM123.633 46.4233C123.779 46.2391 123.964 46.0896 124.174 45.9854C124.414 45.8641 124.679 45.803 124.948 45.8075C125.265 45.8043 125.576 45.8884 125.848 46.0507C126.121 46.2137 126.343 46.4496 126.488 46.7318C126.648 47.0428 126.728 47.3887 126.721 47.7383C126.727 48.091 126.647 48.44 126.488 48.755C126.344 49.0424 126.122 49.284 125.848 49.453C125.578 49.6194 125.265 49.7059 124.948 49.7027C124.682 49.7077 124.419 49.6477 124.181 49.5281C123.971 49.4221 123.784 49.274 123.633 49.0929V51.4322H122.853V45.8668H123.633V46.4233ZM125.926 47.7377C125.932 47.5026 125.876 47.2702 125.763 47.0637C125.665 46.8831 125.518 46.7337 125.339 46.6322C125.167 46.535 124.972 46.4842 124.774 46.4848C124.578 46.4848 124.386 46.5368 124.216 46.6355C124.037 46.7395 123.89 46.8911 123.792 47.0735C123.68 47.2815 123.623 47.515 123.629 47.7513C123.624 47.9886 123.68 48.2231 123.792 48.4324C123.889 48.6164 124.036 48.7694 124.216 48.8742C124.386 48.9729 124.578 49.0249 124.774 49.0249C124.973 49.0255 125.168 48.9723 125.339 48.8709C125.519 48.7636 125.666 48.6084 125.763 48.4226C125.875 48.2119 125.931 47.9762 125.926 47.7377ZM128.277 44.5753V49.6412H127.494V44.5753H128.277ZM129.7 45.3696C129.634 45.3712 129.569 45.3592 129.508 45.3345C129.446 45.3098 129.391 45.2729 129.345 45.2259C129.298 45.1795 129.261 45.1239 129.236 45.0626C129.212 45.0013 129.2 44.9356 129.202 44.8696C129.2 44.8036 129.212 44.7381 129.237 44.6769C129.261 44.6157 129.298 44.5602 129.345 44.5138C129.392 44.4669 129.447 44.4299 129.508 44.4052C129.569 44.3805 129.635 44.3686 129.701 44.3702C129.766 44.369 129.83 44.3811 129.89 44.4058C129.951 44.4305 130.005 44.4673 130.05 44.5138C130.097 44.5602 130.134 44.6157 130.159 44.6769C130.184 44.7381 130.195 44.8036 130.194 44.8696C130.195 44.9356 130.184 45.0012 130.159 45.0624C130.134 45.1235 130.097 45.179 130.05 45.2254C130.005 45.2722 129.95 45.3091 129.889 45.3338C129.829 45.3585 129.764 45.3705 129.699 45.369L129.7 45.3696ZM130.081 45.8695V49.6412H129.302V45.8695H130.081ZM130.848 47.7383C130.841 47.3883 130.922 47.0422 131.084 46.7318C131.232 46.4499 131.454 46.2142 131.727 46.0507C132 45.8884 132.311 45.8043 132.628 45.8075C132.897 45.8013 133.164 45.8613 133.405 45.9821C133.611 46.0865 133.792 46.2351 133.935 46.4174V45.8695H134.723V49.6412H133.935V49.0798C133.791 49.2675 133.606 49.4197 133.394 49.5248C133.152 49.6466 132.884 49.7076 132.614 49.7027C132.299 49.7055 131.991 49.6189 131.724 49.453C131.451 49.2828 131.229 49.0415 131.083 48.755C130.923 48.4404 130.842 48.0909 130.849 47.7377L130.848 47.7383ZM133.935 47.7529C133.94 47.5167 133.883 47.2831 133.771 47.0751C133.674 46.8934 133.528 46.7419 133.35 46.6371C133.18 46.5376 132.986 46.4855 132.789 46.4865C132.592 46.4855 132.398 46.5363 132.227 46.6339C132.05 46.7361 131.904 46.8854 131.806 47.0653C131.694 47.2719 131.638 47.5043 131.643 47.7393C131.639 47.9776 131.695 48.2131 131.806 48.4237C131.904 48.6095 132.051 48.7646 132.231 48.872C132.399 48.9728 132.592 49.026 132.789 49.026C132.986 49.0269 133.18 48.9749 133.35 48.8753C133.529 48.7697 133.674 48.6168 133.771 48.4335C133.883 48.2244 133.939 47.99 133.935 47.7529ZM137.652 45.8086C137.929 45.804 138.203 45.8675 138.449 45.9936C138.684 46.1165 138.876 46.3074 139 46.5414C139.14 46.8121 139.208 47.1136 139.199 47.4178V49.6429H138.427V47.5342C138.446 47.2523 138.355 46.9739 138.174 46.7574C138.084 46.6655 137.976 46.5937 137.857 46.5468C137.738 46.4999 137.61 46.479 137.482 46.4854C137.354 46.4792 137.225 46.5002 137.106 46.5471C136.986 46.594 136.877 46.6656 136.787 46.7574C136.604 46.9731 136.512 47.2517 136.531 47.5342V49.6429H135.75V45.8712H136.531V46.3026C136.663 46.1443 136.83 46.0199 137.02 45.9397C137.22 45.852 137.435 45.807 137.653 45.8075L137.652 45.8086ZM139.931 47.7529C139.924 47.3975 140.005 47.0458 140.167 46.7296C140.315 46.4449 140.542 46.2085 140.82 46.0485C141.113 45.8852 141.444 45.8026 141.779 45.8091C142.182 45.7936 142.579 45.9081 142.912 46.1356C143.218 46.3627 143.433 46.6916 143.518 47.0631H142.678C142.618 46.8866 142.504 46.7334 142.352 46.6252C142.183 46.5152 141.985 46.4602 141.784 46.468C141.639 46.4624 141.496 46.4901 141.364 46.5489C141.231 46.6076 141.115 46.6959 141.022 46.8069C140.817 47.0782 140.715 47.4135 140.735 47.7529C140.714 48.0937 140.815 48.4307 141.019 48.7044C141.111 48.8163 141.227 48.9053 141.36 48.9647C141.492 49.024 141.636 49.0521 141.78 49.0466C141.975 49.063 142.17 49.0131 142.333 48.905C142.495 48.7968 142.617 48.6368 142.677 48.4509H143.519C143.422 48.8159 143.205 49.1378 142.903 49.3649C142.577 49.5988 142.182 49.718 141.78 49.7038C141.445 49.7102 141.114 49.6262 140.822 49.4606C140.544 49.2987 140.318 49.0614 140.169 48.7762C140.006 48.4601 139.925 48.1084 139.933 47.7529H139.931ZM147.756 47.6637C147.757 47.7912 147.748 47.9185 147.729 48.0445H144.845C144.857 48.3213 144.978 48.5823 145.181 48.7703C145.383 48.9527 145.648 49.0501 145.92 49.0423C146.105 49.0547 146.288 49.0109 146.447 48.9168C146.606 48.8227 146.733 48.6827 146.81 48.5151H147.655C147.544 48.8578 147.327 49.1563 147.035 49.3676C146.711 49.5969 146.32 49.7134 145.923 49.6995C145.584 49.705 145.25 49.6211 144.954 49.4563C144.67 49.2959 144.438 49.0587 144.283 48.7719C144.116 48.4571 144.032 48.1048 144.04 47.7486C144.032 47.3932 144.113 47.0414 144.276 46.7253C144.426 46.4383 144.657 46.2016 144.94 46.0442C145.241 45.8805 145.58 45.798 145.923 45.8048C146.255 45.7989 146.582 45.8791 146.874 46.0376C147.15 46.1884 147.376 46.415 147.527 46.6905C147.686 46.9893 147.765 47.3242 147.757 47.6626L147.756 47.6637ZM146.94 47.4173C146.943 47.2865 146.917 47.1566 146.863 47.0371C146.81 46.9176 146.731 46.8113 146.632 46.7258C146.424 46.5498 146.158 46.4571 145.886 46.4658C145.632 46.4599 145.385 46.5505 145.196 46.7193C144.999 46.9002 144.877 47.1479 144.854 47.414L146.94 47.4173ZM151.869 49.6902C151.573 49.6948 151.279 49.6378 151.007 49.5227C150.766 49.4225 150.557 49.2578 150.404 49.0466C150.257 48.8363 150.181 48.5846 150.187 48.328H151.022C151.035 48.5218 151.122 48.7033 151.265 48.8345C151.434 48.9757 151.651 49.0468 151.871 49.033C152.098 49.0468 152.322 48.9774 152.501 48.8377C152.574 48.7763 152.632 48.6991 152.671 48.6119C152.711 48.5248 152.729 48.43 152.727 48.3345C152.733 48.1911 152.682 48.0511 152.586 47.9444C152.489 47.8415 152.37 47.7619 152.237 47.7116C152.048 47.6413 151.855 47.5819 151.659 47.5337C151.401 47.4691 151.148 47.3857 150.903 47.284C150.706 47.1974 150.535 47.0618 150.406 46.8901C150.26 46.6816 150.187 46.4299 150.201 46.1753C150.195 45.9205 150.267 45.6701 150.406 45.4566C150.548 45.247 150.748 45.083 150.981 44.9844C151.252 44.8705 151.543 44.8149 151.837 44.8212C152.243 44.8038 152.643 44.9257 152.97 45.1666C153.115 45.28 153.234 45.4234 153.319 45.5871C153.403 45.7508 153.451 45.9308 153.46 46.1149H152.595C152.587 46.0276 152.561 45.9428 152.519 45.8662C152.476 45.7895 152.418 45.7226 152.348 45.6699C152.177 45.5401 151.967 45.4746 151.752 45.4849C151.555 45.4763 151.362 45.537 151.205 45.6563C151.133 45.7162 151.077 45.792 151.04 45.8776C151.003 45.9632 150.987 46.0562 150.992 46.1492C150.99 46.2149 151 46.2805 151.023 46.3422C151.046 46.4039 151.081 46.4605 151.126 46.5088C151.221 46.6066 151.337 46.6826 151.465 46.7313C151.648 46.801 151.836 46.8604 152.026 46.9092C152.289 46.9779 152.546 47.0648 152.796 47.1692C152.997 47.2573 153.171 47.3951 153.303 47.5696C153.451 47.7802 153.525 48.0346 153.512 48.2921C153.512 48.5339 153.444 48.771 153.316 48.9764C153.179 49.198 152.982 49.377 152.749 49.4933C152.476 49.6285 152.175 49.6956 151.872 49.6886L151.869 49.6902ZM156.072 49.7038C155.735 49.7084 155.402 49.6246 155.107 49.4606C154.821 49.3006 154.586 49.0634 154.429 48.7762C154.26 48.4621 154.175 48.1096 154.183 47.7529C154.176 47.3965 154.263 47.0447 154.436 46.7329C154.597 46.444 154.837 46.2067 155.128 46.0485C155.428 45.8867 155.765 45.8043 156.107 45.8091C156.448 45.8043 156.785 45.8867 157.086 46.0485C157.377 46.2067 157.616 46.444 157.777 46.7329C157.952 47.0443 158.04 47.3962 158.035 47.7529C158.042 48.1102 157.952 48.4626 157.775 48.773C157.608 49.0637 157.363 49.3021 157.068 49.4612C156.763 49.6241 156.422 49.707 156.076 49.7022L156.072 49.7038ZM156.072 49.026C156.269 49.0268 156.464 48.9774 156.637 48.8823C156.817 48.7817 156.965 48.6322 157.064 48.4509C157.179 48.2366 157.235 47.9959 157.227 47.7529C157.235 47.5117 157.181 47.2726 157.07 47.0582C156.975 46.8787 156.83 46.7302 156.652 46.6306C156.481 46.5353 156.287 46.4858 156.091 46.487C155.896 46.4855 155.703 46.535 155.533 46.6306C155.358 46.7301 155.216 46.8788 155.125 47.0582C155.019 47.274 154.967 47.5125 154.975 47.7529C154.953 48.0952 155.064 48.4326 155.286 48.6941C155.387 48.8027 155.509 48.8885 155.645 48.9455C155.782 49.0026 155.929 49.0297 156.076 49.0249L156.072 49.026ZM160.384 46.5066H159.686V49.6418H158.902V46.5066H158.457V45.8701H158.902V45.603C158.886 45.4292 158.909 45.2542 158.969 45.0903C159.029 44.9264 159.124 44.7777 159.247 44.6547C159.563 44.4307 159.947 44.3253 160.332 44.3571V45.01C160.155 44.9921 159.977 45.0395 159.832 45.1433C159.778 45.2064 159.738 45.28 159.713 45.3594C159.688 45.4388 159.68 45.5224 159.689 45.6051V45.8722H160.387L160.384 46.5066ZM161.986 46.5066V48.5945C161.981 48.6494 161.987 48.7048 162.004 48.7572C162.021 48.8096 162.049 48.858 162.085 48.8992C162.183 48.9706 162.304 49.0035 162.424 48.9917H162.903V49.6445H162.287C161.997 49.6641 161.71 49.5764 161.48 49.3981C161.378 49.2927 161.3 49.1666 161.252 49.0284C161.203 48.8902 161.185 48.7431 161.199 48.5973V46.5093H160.755V45.8728H161.2V44.9349H161.987V45.8728H162.904V46.5093L161.986 46.5066ZM168.688 45.8701L167.517 49.6418H166.696L165.934 46.8558L165.172 49.6418H164.351L163.174 45.8701H163.968L164.755 48.9025L165.556 45.8701H166.372L167.139 48.8889L167.919 45.8701H168.688ZM169.009 47.7388C169.002 47.3888 169.084 47.0427 169.246 46.7323C169.395 46.4493 169.619 46.2132 169.895 46.0501C170.167 45.8879 170.478 45.8038 170.795 45.807C171.064 45.8007 171.331 45.8607 171.572 45.9816C171.778 46.086 171.959 46.2346 172.102 46.4168V45.869H172.887V49.6407H172.099V49.0793C171.956 49.2669 171.771 49.4191 171.559 49.5243C171.317 49.646 171.049 49.7071 170.779 49.7022C170.464 49.705 170.156 49.6184 169.889 49.4525C169.616 49.2822 169.394 49.0409 169.248 48.7545C169.087 48.4401 169.006 48.0908 169.013 47.7377L169.009 47.7388ZM172.097 47.7524C172.102 47.5161 172.046 47.2826 171.934 47.0745C171.836 46.8928 171.69 46.7414 171.512 46.6366C171.342 46.537 171.148 46.485 170.951 46.4859C170.754 46.4849 170.561 46.5358 170.39 46.6333C170.212 46.7355 170.066 46.8848 169.969 47.0647C169.856 47.2713 169.8 47.5037 169.805 47.7388C169.801 47.9771 169.857 48.2126 169.969 48.4232C170.066 48.6089 170.213 48.7641 170.393 48.8715C170.562 48.9722 170.754 49.0254 170.951 49.0254C171.148 49.0264 171.342 48.9743 171.512 48.8747C171.691 48.7691 171.837 48.6163 171.934 48.433C172.046 48.2243 172.104 47.9901 172.1 47.7529L172.097 47.7524ZM174.691 46.4174C174.801 46.2303 174.958 46.0756 175.147 45.9691C175.353 45.8568 175.586 45.8005 175.821 45.8059V46.6138H175.622C175.497 46.6047 175.371 46.6206 175.251 46.6605C175.132 46.7005 175.022 46.7637 174.927 46.8466C174.746 47.0746 174.661 47.3647 174.691 47.6545V49.6396H173.911V45.8679H174.691V46.4174ZM179.997 47.6632C179.997 47.7906 179.988 47.918 179.969 48.044H177.086C177.097 48.3208 177.218 48.5818 177.422 48.7697C177.624 48.9521 177.889 49.0495 178.161 49.0417C178.345 49.0541 178.529 49.0104 178.688 48.9163C178.847 48.8222 178.973 48.6821 179.051 48.5146H179.893C179.782 48.8572 179.565 49.1558 179.274 49.3671C178.949 49.5963 178.558 49.7129 178.161 49.6989C177.822 49.7045 177.488 49.6206 177.192 49.4557C176.908 49.2954 176.676 49.0581 176.521 48.7714C176.354 48.4566 176.271 48.1043 176.278 47.748C176.271 47.3926 176.352 47.0409 176.514 46.7247C176.664 46.4378 176.895 46.201 177.178 46.0436C177.48 45.88 177.818 45.7975 178.161 45.8042C178.493 45.7983 178.821 45.8785 179.112 46.0371C179.388 46.1879 179.615 46.4144 179.765 46.6899C179.926 46.9886 180.007 47.3236 180 47.6626L179.997 47.6632ZM179.18 47.4167C179.183 47.2859 179.157 47.1561 179.104 47.0365C179.051 46.917 178.972 46.8107 178.873 46.7253C178.665 46.5492 178.399 46.4566 178.126 46.4652C177.871 46.4598 177.624 46.5516 177.435 46.722C177.238 46.9029 177.116 47.1506 177.093 47.4167H179.18Z" fill="black"/>
<path d="M28.6886 0H21.563V37.3962H28.6886V0Z" fill="black"/>
</svg>
