<svg width="52" height="18" viewBox="0 0 52 18" fill="none" xmlns="http://www.w3.org/2000/svg">
<path d="M21.5276 8.4116H14.5564C14.5908 9.25881 14.8197 9.88266 15.2433 10.2832C15.6693 10.685 16.2376 10.9011 16.823 10.8841C17.3219 10.9028 17.8133 10.7582 18.2224 10.4721C18.5912 10.2023 18.8455 9.80406 18.935 9.35597H21.4935C21.373 10.0078 21.096 10.6206 20.6864 11.1418C20.2645 11.676 19.7196 12.1001 19.0982 12.378C18.3636 12.6954 17.5681 12.8469 16.7682 12.8217C15.9684 12.7965 15.1839 12.5951 14.4708 12.232C13.7571 11.8444 13.1724 11.2564 12.7887 10.5406C12.3716 9.7414 12.1644 8.84927 12.1867 7.94801C12.1648 7.04414 12.3715 6.14938 12.7876 5.34668C13.1681 4.6285 13.7536 4.03976 14.4697 3.65535C15.2318 3.25634 16.0821 3.05559 16.9422 3.0716C17.7999 3.05213 18.6483 3.25312 19.4062 3.65535C20.0907 4.02557 20.6563 4.5822 21.0374 5.26073C21.4291 5.97277 21.6278 6.77484 21.6138 7.58737C21.6101 7.86414 21.5814 8.14 21.528 8.4116M18.5657 5.57848C18.1223 5.17686 17.5411 4.96162 16.9431 4.97754C16.3371 4.96049 15.7475 5.17543 15.2947 5.57848C14.8482 5.97922 14.6021 6.56875 14.5564 7.34708H19.1753C19.2097 6.56875 19.0064 5.97922 18.5653 5.57848" fill="black"/>
<path d="M29.8372 3.63832C30.3987 4.00203 30.8268 4.53832 31.0571 5.16643V3.19191H33.4601V12.7388C33.4732 13.5614 33.2938 14.3758 32.9365 15.1168C32.5938 15.8134 32.0493 16.3906 31.374 16.7732C30.6036 17.1931 29.7354 17.4005 28.8584 17.3742C27.4848 17.3742 26.3744 17.0479 25.5273 16.3954C24.6818 15.7462 24.1266 14.7898 23.982 13.7336H26.3687C26.4905 14.1925 26.7741 14.5919 27.1671 14.8582C27.6211 15.1437 28.1511 15.2844 28.6869 15.2618C29.0003 15.2758 29.3134 15.2277 29.6081 15.1201C29.9028 15.0125 30.1733 14.8476 30.4039 14.6349C30.8388 14.217 31.0563 13.5845 31.0564 12.7375V10.7127C30.8249 11.3425 30.3972 11.8812 29.8364 12.2495C29.2233 12.6447 28.5051 12.8453 27.7759 12.8248C27.0147 12.8355 26.2657 12.6333 25.6133 12.241C24.9579 11.8362 24.4356 11.2482 24.1108 10.5497C23.7339 9.73536 23.5489 8.84542 23.57 7.94835C23.5491 7.05118 23.7343 6.16117 24.1114 5.34684C24.4363 4.64842 24.9586 4.06044 25.6138 3.65551C26.2663 3.26334 27.0153 3.06117 27.7765 3.07177C28.5044 3.05125 29.2219 3.24852 29.837 3.63832M26.7122 5.92282C26.2541 6.415 26.0252 7.09036 26.0253 7.94891C26.0254 8.80745 26.2544 9.47998 26.7122 9.96649C27.2003 10.4376 27.8531 10.6995 28.5315 10.6962C29.2099 10.693 29.8602 10.425 30.3438 9.9493C30.8186 9.45133 31.0561 8.78453 31.0564 7.94891C31.0564 7.10195 30.8189 6.42942 30.3438 5.93132C30.1116 5.68619 29.8301 5.49293 29.5179 5.3642C29.2057 5.23547 28.8699 5.17418 28.5323 5.18436C28.1938 5.17008 27.8561 5.22861 27.5421 5.356C27.2281 5.48339 26.9451 5.67668 26.7122 5.92282Z" fill="black"/>
<path d="M42.1652 3.63813C42.7267 4.00185 43.1549 4.53813 43.3852 5.16625V3.19173H45.7882V12.7042H43.3852V10.7125C43.1537 11.3423 42.726 11.881 42.1652 12.2493C41.5521 12.6445 40.8339 12.8451 40.1047 12.8246C39.3435 12.8353 38.5945 12.6331 37.942 12.2408C37.2867 11.836 36.7644 11.248 36.4396 10.5495C36.0627 9.73519 35.8776 8.84525 35.8986 7.94817C35.8776 7.05109 36.0627 6.16115 36.4396 5.34684C36.7645 4.64842 37.2868 4.06044 37.942 3.65551C38.5945 3.26334 39.3435 3.06117 40.1047 3.07177C40.8327 3.05125 41.5501 3.24834 42.1652 3.63813ZM39.0402 5.92263C38.5822 6.41482 38.3532 7.09018 38.3533 7.94872C38.3535 8.80727 38.5824 9.4798 39.0402 9.96631C39.5283 10.4375 40.1811 10.6993 40.8595 10.6961C41.5379 10.6929 42.1882 10.4249 42.6719 9.94912C43.1467 9.45115 43.3842 8.78435 43.3844 7.94872C43.3844 7.10176 43.1469 6.42923 42.6719 5.93114C42.4396 5.68601 42.1582 5.49274 41.846 5.36401C41.5338 5.23528 41.1979 5.174 40.8604 5.18418C40.5218 5.16987 40.1842 5.22837 39.8702 5.35573C39.5562 5.48309 39.2731 5.67653 39.0402 5.92263Z" fill="black"/>
<path d="M51.1296 0H48.7085V12.7063H51.1296V0Z" fill="black"/>
<path d="M3.76567 10.9258C3.76567 11.2982 3.65525 11.6622 3.44837 11.9718C3.24149 12.2815 2.94744 12.5228 2.60341 12.6653C2.25937 12.8078 1.88081 12.8451 1.51558 12.7725C1.15035 12.6998 0.814862 12.5205 0.551536 12.2572C0.288209 11.9939 0.108872 11.6585 0.0362015 11.2932C-0.0364689 10.928 0.000791099 10.5494 0.14327 10.2054C0.285749 9.86136 0.527048 9.56728 0.836654 9.36037C1.14626 9.15346 1.51027 9.04301 1.88265 9.04297C2.38203 9.04297 2.86095 9.24133 3.21408 9.59443C3.56721 9.94752 3.76562 10.4264 3.76567 10.9258Z" fill="#8BBEE8"/>
<path d="M9.74776 0H7.32666V12.7063H9.74776V0Z" fill="black"/>
</svg>
