<svg width="23" height="24" viewBox="0 0 23 24" fill="none" xmlns="http://www.w3.org/2000/svg">
<path d="M11.5 23C17.5751 23 22.5 18.0751 22.5 12C22.5 5.92487 17.5751 1 11.5 1C5.42487 1 0.5 5.92487 0.5 12C0.5 18.0751 5.42487 23 11.5 23Z" stroke="#032478" stroke-linejoin="round"/>
<path d="M11.484 7.808C11.2067 7.808 10.972 7.712 10.78 7.52C10.588 7.328 10.492 7.09333 10.492 6.816C10.492 6.53867 10.588 6.304 10.78 6.112C10.972 5.92 11.2067 5.824 11.484 5.824C11.7507 5.824 11.9747 5.92 12.156 6.112C12.348 6.304 12.444 6.53867 12.444 6.816C12.444 7.09333 12.348 7.328 12.156 7.52C11.9747 7.712 11.7507 7.808 11.484 7.808ZM12.188 9.232V18H10.732V9.232H12.188Z" fill="#032478"/>
</svg>
