<svg width="25" height="25" viewBox="0 0 25 25" fill="none" xmlns="http://www.w3.org/2000/svg">
<path d="M25 12.5C25 14.9723 24.2669 17.389 22.8934 19.4446C21.5199 21.5002 19.5676 23.1024 17.2835 24.0485C14.9995 24.9946 12.4861 25.2421 10.0614 24.7598C7.63661 24.2775 5.40932 23.087 3.66117 21.3388C1.91301 19.5907 0.722499 17.3634 0.240184 14.9386C-0.242131 12.5139 0.00541045 10.0005 0.951506 7.71646C1.8976 5.43238 3.49976 3.48015 5.55537 2.10663C7.61099 0.733112 10.0277 -2.94815e-08 12.5 0L12.5 0.926126C10.2109 0.926126 7.97321 1.60492 6.0699 2.87668C4.16659 4.14843 2.68313 5.95602 1.80714 8.07087C0.931136 10.1857 0.701935 12.5128 1.14852 14.758C1.5951 17.0031 2.6974 19.0653 4.31604 20.684C5.93467 22.3026 7.99694 23.4049 10.242 23.8515C12.4872 24.2981 14.8143 24.0689 16.9291 23.1929C19.044 22.3169 20.8516 20.8334 22.1233 18.9301C23.3951 17.0268 24.0739 14.7891 24.0739 12.5H25Z" fill="white"/>
</svg>
